inDegrees=no
num_controls=7
num_derivatives=13
num_iterations=85
num_multipliers=7
num_parameters=0
num_slacks=7
num_states=26
objective=0.454556
objective_accelerations=0.044692
objective_balance=0.000797
objective_effort=0.036478
objective_height=0.366500
objective_ligament=0.006089
solver_duration=976.651405
status=Solve_Succeeded
success=true
DataType=double
version=3
OpenSimVersion=4.5
endheader
time	/jointset/ground_pelvis/pelvis_tilt/value	/jointset/ground_pelvis/pelvis_tx/value	/jointset/ground_pelvis/pelvis_ty/value	/jointset/hip_r/hip_flexion_r/value	/jointset/hip_r/hip_adduction_r/value	/jointset/hip_r/hip_rotation_r/value	/jointset/back/lumbar_extension/value	/jointset/patellofemoral_r/patellar_flexion_r/value	/jointset/knee_r/knee_flexion_r/value	/jointset/knee_r/knee_adduction_r/value	/jointset/knee_r/knee_rotation_r/value	/jointset/ankle_r/ankle_angle_r/value	/jointset/subtalar_r/subtalar_angle_r/value	/jointset/ground_pelvis/pelvis_tilt/speed	/jointset/ground_pelvis/pelvis_tx/speed	/jointset/ground_pelvis/pelvis_ty/speed	/jointset/hip_r/hip_flexion_r/speed	/jointset/hip_r/hip_adduction_r/speed	/jointset/hip_r/hip_rotation_r/speed	/jointset/back/lumbar_extension/speed	/jointset/patellofemoral_r/patellar_flexion_r/speed	/jointset/knee_r/knee_flexion_r/speed	/jointset/knee_r/knee_adduction_r/speed	/jointset/knee_r/knee_rotation_r/speed	/jointset/ankle_r/ankle_angle_r/speed	/jointset/subtalar_r/subtalar_angle_r/speed	/forceset/tau_hip_flexion_r	/forceset/tau_hip_adduction_r	/forceset/tau_hip_rotation_r	/forceset/tau_knee_flexion_r	/forceset/tau_ankle_angle_r	/forceset/tau_subtalar_angle_r	/forceset/tau_lumbar_extension	lambda_cid13_p0	lambda_cid14_p0	lambda_cid14_p1	lambda_cid14_p2	lambda_cid14_p3	lambda_cid14_p4	lambda_cid14_p5	/jointset/ground_pelvis/pelvis_tilt/accel	/jointset/ground_pelvis/pelvis_tx/accel	/jointset/ground_pelvis/pelvis_ty/accel	/jointset/hip_r/hip_flexion_r/accel	/jointset/hip_r/hip_adduction_r/accel	/jointset/hip_r/hip_rotation_r/accel	/jointset/back/lumbar_extension/accel	/jointset/patellofemoral_r/patellar_flexion_r/accel	/jointset/knee_r/knee_flexion_r/accel	/jointset/knee_r/knee_adduction_r/accel	/jointset/knee_r/knee_rotation_r/accel	/jointset/ankle_r/ankle_angle_r/accel	/jointset/subtalar_r/subtalar_angle_r/accel	gamma_cid13_p0	gamma_cid14_p0	gamma_cid14_p1	gamma_cid14_p2	gamma_cid14_p3	gamma_cid14_p4	gamma_cid14_p5
0	-0.007391202335255305	0.1318213653368931	0.9332761366423523	0.1934211968871041	-0.2294190820674849	-0.2405327676562737	-0.2903787966825928	0.2311786273363362	0.2311786273363406	0.1352349093844464	0.1729895025080773	0.089344008118978	0.06232143508000977	0	0	0	0	0	0	0	0	0	0	0	0	0	0.09642165103364457	-0.04085753619548235	0.004088815345475982	-0.2264152118007711	0.1001197683159356	-0.09968475289709271	-0.02004411531117401	-29.9349992488627	-14.72860332471595	-40.64035504363045	0.9253666408026724	6.880913224447442	-609.8796939317024	30.78394531298591	-1.518409918426956	-1.840161041880682	-0.8176639637512192	9.297244696119149	-0.4203079380630598	2.394100032849052	-6.305031528053846	9.869199434168484	9.869199434168001	-1.640126402122157	0.4609588934598796	2.525172473116821	0.1758935824669048	-6.038964937753612e-09	1.599817339426244e-08	3.591602185118244e-08	-2.585836218185706e-08	-2.363595085704861e-08	9.92584061250925e-08	4.481446104817286e-08
0.01	-0.007462738589103362	0.1317316960226639	0.9332362993756684	0.1938743034846142	-0.2294376851190658	-0.2404095577434977	-0.2906945007187055	0.2316632447013752	0.2316632447014049	0.1351504957171228	0.173005315986144	0.08947007688602121	0.06233310820330153	-0.01438125062515957	-0.01772384012863825	-0.007955484849605872	0.09028379587107167	-0.00361691252484839	0.02474771119193591	-0.0626485563861507	0.09656977787639197	0.09656977787639225	-0.01698785760926277	0.002889999009041198	0.02532891655701091	0.002494889191834283	0.0976705851573472	-0.05702520790017188	0.003808750630083463	-0.2340926112616008	0.110104844151764	-0.08967693636795575	-0.01969535882404585	-29.9402639275916	-11.00193010718736	-35.6213173917705	0.102200963371211	2.269459263156418	-611.4836212260999	42.11033725073772	-1.409085850622418	-1.706996817805601	-0.7826756208150386	8.843317194979536	-0.3168323061336841	2.530961495897954	-6.170930068488566	9.497813902163667	9.497813902164099	-1.743882824784832	0.1621113410499247	2.554027126620264	0.3103284075413717	3.881152139599138e-08	4.386304700723263e-09	-2.968635996801821e-07	1.390768858666553e-07	2.379170826517602e-08	9.091717910684183e-10	-2.00928169678594e-07
0.02	-0.007680307992416588	0.1314710880432587	0.9331172702854383	0.1952201220732969	-0.2294893471751771	-0.2400356997520849	-0.2916219227935998	0.233102949232752	0.2331029492327538	0.1348930499967251	0.1730418476415664	0.08985288999456596	0.0623745385825115	-0.02920662989277807	-0.03418773303520457	-0.01583836470925954	0.1785423982372967	-0.006611800907191139	0.05012961572515615	-0.1223436077560261	0.1910174332643431	0.191017433264346	-0.03460641059677679	0.004143635475029942	0.05134886829910282	0.005951451183654075	0.0989195192808955	-0.07319287960492138	0.003528685914549693	-0.2417700107225229	0.120089919987533	-0.079669119838907	-0.01934660233699361	-29.95528222157681	-7.198904321133737	-30.60494910876236	-0.7022174959944032	-2.323712887479917	-611.8787180180876	53.20692210826928	-1.607235646918788	-1.588171597466238	-0.8031429657607797	8.892205995149794	-0.2959031095619318	2.520938701105925	-5.714330524798819	9.444774936480288	9.444774936480275	-1.766265477772406	0.1336863848493804	2.66337951013308	0.3682281424640227	8.366200772973636e-08	-7.225563992815915e-09	-6.296432212115467e-07	3.040121339151677e-07	7.121936738740066e-08	-9.744006254295567e-08	-4.466708004053609e-07
0.03	-0.00804680231371737	0.1310507608524655	0.932919663552237	0.1974371184327552	-0.2295697173354891	-0.2394075805247362	-0.293132241389308	0.2354751899272604	0.2354751899272526	0.1344606955451804	0.1730861440931284	0.09049627753992591	0.06245217822374313	-0.04397478214658022	-0.04980486718822471	-0.02367549728424692	0.2643471838497088	-0.009531801565918884	0.07538774123982088	-0.1793385321212958	0.2829284078723058	0.2829284078723118	-0.05154668711434859	0.004715062180444239	0.07713943229015809	0.009437145351730722	0.09291733328149573	-0.07177823620446105	0.004170760676938146	-0.2352624290696702	0.1109723270036106	-0.07673825910750107	-0.01443066840731203	-29.97897223029375	-9.97976265888442	-29.70133237859912	-0.9806663504407326	-0.9354089018318327	-612.3673230375746	54.05368120607881	-1.393983391805991	-1.537544198256163	-0.7728955917443238	8.348162429984441	-0.3005153817550184	2.512346055453583	-5.634836502816038	8.988897144776628	8.988897144777109	-1.610310363204805	0.01884692641980688	2.508523857557517	0.3177774640154012	7.611281322961369e-08	-2.718705347722181e-08	-6.039523805025674e-07	2.138071378117883e-07	7.951413715656429e-08	-2.165590524732318e-07	-3.700838702939e-07
0.04	-0.008557453832998331	0.1304764503453352	0.9326439060556104	0.2004968721654779	-0.2296813808699372	-0.2385300607264806	-0.2952010618507544	0.2387514680521966	0.2387514680521987	0.1338684580035543	0.1731361500343915	0.09139189652798886	0.06256048228866265	-0.05803806948818218	-0.06498439630263501	-0.03146851739431397	0.3470938728900283	-0.01287047573372082	0.1000097299067567	-0.2340439809035745	0.3718249193531602	0.3718249193531681	-0.06658302861012992	0.005285533407148646	0.1017951568398442	0.01208433592124497	0.08691514728212262	-0.07036359280399124	0.004812835439493595	-0.2287548474168218	0.1018547340196917	-0.0738073983760844	-0.00951473447761373	-30.0101600985989	-12.69049088699342	-28.80123400909749	-1.240508221366576	0.4580191451490813	-611.754024531986	54.69022927144	-1.4662626644788	-1.500650589744204	-0.7943204727767166	8.280586680731219	-0.3796378113767719	2.393711331560155	-5.256435408200654	8.841882311058589	8.841882311058361	-1.3854784734143	0.1334952891073919	2.436411621859325	0.2005274227515556	6.748321293910196e-08	-4.73207000913363e-08	-5.708703962422407e-07	1.183415181176482e-07	8.700204322772667e-08	-3.361062847869359e-07	-2.868509698558777e-07
0.05	-0.009206421898568101	0.1297527766045845	0.9322901451786766	0.2043708766218055	-0.2298272424746471	-0.2374093887872744	-0.2978047350689985	0.2429029154251855	0.2429029154251816	0.133132459913525	0.173191175613617	0.09252962299419276	0.06269300633410343	-0.07171396758120963	-0.07965138452621774	-0.03929746806917914	0.4273387518102223	-0.01622562330360124	0.124044121976484	-0.2862810457332896	0.4580542298602718	0.4580542298602777	-0.0806191752588174	0.005616493261911478	0.1256783566563862	0.01449564680532617	0.08220900594702593	-0.06547062631758073	0.005227267014161183	-0.2259750060240399	0.0990378795638842	-0.07473984712659794	-0.005464338750260252	-30.04760487176436	-13.59543721082275	-29.40385522654397	-1.099648303253264	0.3998458980031037	-611.4356715808469	52.42444900819661	-1.312011248844352	-1.434860379352236	-0.779322063653004	7.841197453839215	-0.3020694752312393	2.396260059796297	-5.145899468633488	8.451893186170842	8.451893186170738	-1.413148689869965	-0.03253659110905872	2.353515649822131	0.2726343130787279	7.741309481540675e-08	-5.428194276736033e-08	-6.439544516133488e-07	1.364563106278494e-07	1.01039019994931e-07	-4.014486492256033e-07	-3.284406097495704e-07
